<svg xmlns="http://www.w3.org/2000/svg" viewBox="0 0 1920 1080">
  <defs>
    <linearGradient id="sky" x1="0%" y1="0%" x2="0%" y2="100%">
      <stop offset="0%" stop-color="#0e1725"/>
      <stop offset="50%" stop-color="#1f2d3f"/>
      <stop offset="100%" stop-color="#334357"/>
    </linearGradient>
    <linearGradient id="auroraA" x1="0%" y1="0%" x2="100%" y2="100%">
      <stop offset="0%" stop-color="#88c0d0" stop-opacity="0.0"/>
      <stop offset="35%" stop-color="#8fbcbb" stop-opacity="0.85"/>
      <stop offset="100%" stop-color="#81a1c1" stop-opacity="0.0"/>
    </linearGradient>
    <linearGradient id="auroraB" x1="0%" y1="0%" x2="100%" y2="0%">
      <stop offset="0%" stop-color="#5e81ac" stop-opacity="0.0"/>
      <stop offset="40%" stop-color="#88c0d0" stop-opacity="0.75"/>
      <stop offset="100%" stop-color="#a3be8c" stop-opacity="0.0"/>
    </linearGradient>
    <linearGradient id="lake" x1="0%" y1="0%" x2="0%" y2="100%">
      <stop offset="0%" stop-color="#1b2737"/>
      <stop offset="100%" stop-color="#101722"/>
    </linearGradient>
  </defs>

  <rect width="1920" height="1080" fill="url(#sky)"/>

  <path d="M-80 250 C180 180 340 300 560 238 C760 182 960 112 1180 166 C1450 232 1600 150 2000 220 L2000 420 C1710 370 1490 430 1200 360 C940 298 740 420 470 350 C240 288 120 364 -80 320 Z" fill="url(#auroraA)"/>
  <path d="M-120 310 C140 420 410 220 660 300 C980 400 1200 190 1470 270 C1700 338 1820 250 2020 300 L2020 450 C1790 400 1630 470 1420 430 C1140 376 980 500 650 420 C410 362 180 450 -120 380 Z" fill="url(#auroraB)"/>

  <g fill="#d8dee9" opacity="0.8">
    <circle cx="250" cy="136" r="2"/>
    <circle cx="392" cy="92" r="1.6"/>
    <circle cx="612" cy="148" r="2"/>
    <circle cx="820" cy="112" r="1.7"/>
    <circle cx="1048" cy="96" r="1.6"/>
    <circle cx="1302" cy="124" r="2.1"/>
    <circle cx="1556" cy="102" r="1.8"/>
    <circle cx="1718" cy="150" r="1.7"/>
  </g>

  <path d="M0 640 L210 470 L360 590 L560 420 L710 610 L950 378 L1140 640 L1340 460 L1540 618 L1760 442 L1920 600 V1080 H0 Z" fill="#1a2534"/>
  <path d="M0 720 L240 560 L460 694 L640 540 L860 708 L1080 520 L1280 734 L1480 566 L1720 724 L1920 608 V1080 H0 Z" fill="#101925"/>

  <rect y="760" width="1920" height="320" fill="url(#lake)"/>
  <g opacity="0.23">
    <path d="M0 800 C210 770 360 830 570 790 C770 750 940 834 1170 794 C1410 752 1580 830 1920 782 V860 H0 Z" fill="#81a1c1"/>
    <path d="M0 878 C190 848 360 902 550 872 C750 842 970 910 1180 874 C1400 838 1630 902 1920 860 V930 H0 Z" fill="#88c0d0"/>
  </g>
</svg>
